<?xml version="1.0" encoding="utf-8"?>
<!-- Generator: Adobe Illustrator 24.0.1, SVG Export Plug-In . SVG Version: 6.00 Build 0)  -->
<svg version="1.1" id="Layer_1" xmlns="http://www.w3.org/2000/svg" xmlns:xlink="http://www.w3.org/1999/xlink" x="0px" y="0px"
	 viewBox="0 0 195.88 60" style="enable-background:new 0 0 195.88 60;" xml:space="preserve">
<style type="text/css">
	.st0{fill:#231F20;}
	.st1{fill:#FFFFFF;}
	.st2{fill:none;}
	.st3{fill:#D81F27;}
	.st4{fill:#9BCA3B;}
</style>
<g>
	<g>
		<g>
			<path class="st0" d="M79.08,40.13h-7.09l-1.92,5.56h-7.44l11.71-27.23h8.62l4.07,27.23h-7.52L79.08,40.13z M78.72,34.96
				l-0.9-11.79l-4.07,11.79H78.72z"/>
			<path class="st0" d="M95.37,39.62c-0.12,0.98,0.24,1.29,0.78,1.29c0.31,0,0.59-0.08,0.9-0.16l0.74,4.86
				c-1.18,0.51-2.78,0.82-4.27,0.82c-3.72,0-5.64-2.27-5.05-6.46l3.29-23.39l6.93-0.71L95.37,39.62z"/>
			<path class="st0" d="M105.67,45.69h-6.86l2.9-20.88h6.85L105.67,45.69z M102.18,17.88c0-2.47,1.96-4.31,4.43-4.31
				c2.15,0,3.53,1.41,3.53,3.37c0,2.47-1.92,4.31-4.43,4.31C103.56,21.24,102.18,19.83,102.18,17.88z"/>
			<path class="st0" d="M132.31,16.58l-4.07,29.1h-6.11l0.04-2.82c-1.29,1.84-3.29,3.56-6.19,3.56c-4.39,0-6.54-3.21-6.54-8.46
				c0-5.76,2.94-13.87,10.11-13.87c1.96,0,3.53,0.74,4.58,1.84l1.37-10.07L132.31,16.58z M116.52,37.97c0,2.74,0.86,3.37,1.92,3.37
				c1.53,0,2.9-1.72,3.99-3.53l1.06-7.52c-0.67-0.78-1.41-1.17-2.43-1.17C117.5,29.12,116.52,34.68,116.52,37.97z"/>
			<path class="st0" d="M138.89,38.17c0.16,2.43,1.57,3.21,3.41,3.21c1.76,0,3.29-0.63,5.25-1.92l2.43,4.07
				c-2.31,1.65-5.17,2.9-8.54,2.9c-6.42,0-9.44-3.64-9.44-8.93c0-5.68,3.13-13.4,12.18-13.4c5.25,0,8.03,2.55,8.03,5.84
				C152.21,35.78,145.19,37.58,138.89,38.17z M145.31,30.25c0-0.86-0.43-1.65-1.76-1.65c-2.58,0-3.84,2.74-4.39,5.48
				C144.18,33.78,145.31,31.7,145.31,30.25z"/>
			<path class="st0" d="M175.12,16.58l-4.07,29.1h-6.11l0.04-2.82c-1.29,1.84-3.29,3.56-6.19,3.56c-4.39,0-6.54-3.21-6.54-8.46
				c0-5.76,2.94-13.87,10.11-13.87c1.96,0,3.53,0.74,4.58,1.84l1.37-10.07L175.12,16.58z M159.33,37.97c0,2.74,0.86,3.37,1.92,3.37
				c1.53,0,2.9-1.72,3.99-3.53l1.06-7.52c-0.67-0.78-1.41-1.17-2.43-1.17C160.31,29.12,159.33,34.68,159.33,37.97z"/>
			<path class="st0" d="M195.88,26.42L194,39.34c-0.16,1.33-0.12,2.04,0.94,2.47l-1.96,4.47c-2.39-0.16-4.47-1.21-5.17-3.45
				c-1.45,2.08-3.37,3.6-6.23,3.6c-4.43,0-6.82-3.29-6.82-8.42c0-6.03,3.21-13.91,12.22-13.91
				C189.89,24.11,193.06,24.81,195.88,26.42z M181.86,38.01c0,2.74,0.9,3.33,2,3.33c1.25,0,2.43-0.9,3.49-2.62l1.37-9.44
				c-0.67-0.2-1.17-0.31-1.96-0.31C183.07,28.96,181.86,34.13,181.86,38.01z"/>
		</g>
	</g>
	<g>
		<path class="st1" d="M51.74,38.97c-0.02,0-0.66,0.16-1.53,0.36c2.16-3.82,3.4-8.23,3.4-12.93C53.61,11.84,41.76,0,27.21,0
			S0.81,11.84,0.81,26.4c0,4.54,1.15,8.81,3.18,12.54c-0.8-0.09-1.42-0.15-1.49-0.16L0,38.51l0.2,2.5c0.01,0.11,0.21,2.59,0.68,4.32
			c0.65,2.38,1.67,4.29,3.03,5.68c2.2,2.24,5.43,3.53,9.33,3.71c0.35,0.02,0.69,0.02,1.01,0.02c0.3,0,0.6-0.01,0.9-0.02
			C17.11,57.9,21.57,60,26.69,60c5.1,0,9.59-2.12,11.55-5.3l0.29,0c0.54,0.04,1.08,0.06,1.61,0.06c0.34,0,0.7-0.01,1.07-0.03
			c3.94-0.19,7.18-1.48,9.38-3.72c3.03-3.09,3.64-9.16,3.7-9.84l0.25-2.87L51.74,38.97z"/>
		<g>
			<g>
				<g>
					<path class="st2" d="M51.23,45.68c-0.16,0.48-0.34,0.95-0.54,1.42C50.9,46.64,51.08,46.16,51.23,45.68z"/>
					<polygon class="st2" points="15.85,52.61 15.86,52.6 16.38,52.49 15.86,52.6 					"/>
					<path class="st2" d="M52.22,40.99L52.22,40.99c0,0-0.13,1.48-0.58,3.29C52.09,42.47,52.22,40.99,52.22,40.99z"/>
					<path class="st2" d="M40.14,52.68c0.03,0,0.07,0,0.1,0c-0.08,0-0.16,0-0.24,0C40.05,52.68,40.09,52.68,40.14,52.68z"/>
					<path class="st2" d="M51.64,44.28c-0.11,0.45-0.25,0.93-0.4,1.4C51.39,45.21,51.52,44.73,51.64,44.28z"/>
					<path class="st2" d="M47.79,50.64c-0.46,0.32-0.96,0.59-1.5,0.84C46.83,51.23,47.33,50.95,47.79,50.64z"/>
					<path class="st2" d="M2.28,40.85c0,0,0.17,2.09,0.54,3.64C2.45,42.94,2.28,40.85,2.28,40.85L2.28,40.85z"/>
					<path class="st2" d="M39.48,52.67c-0.07,0-0.14,0-0.21-0.01C39.33,52.66,39.41,52.67,39.48,52.67z"/>
					<path class="st2" d="M4.97,49.05c-0.72-0.87-1.31-1.97-1.76-3.28C3.66,47.08,4.25,48.17,4.97,49.05z"/>
					<path class="st2" d="M15.18,52.65c-0.07,0-0.14,0.01-0.21,0.01C15.04,52.65,15.11,52.65,15.18,52.65z"/>
					<path class="st2" d="M14.25,52.67c0.05,0,0.1,0,0.15,0c-0.08,0-0.15,0-0.23,0C14.2,52.67,14.23,52.67,14.25,52.67z"/>
					<path class="st2" d="M45.18,51.92c-0.52,0.18-1.06,0.33-1.64,0.45C44.11,52.25,44.65,52.09,45.18,51.92z"/>
					<path class="st2" d="M17.26,54.14c1.72,2.24,5.3,3.78,9.42,3.78l0,0C22.56,57.92,18.99,56.38,17.26,54.14z"/>
					<g>
						<path class="st3" d="M26.68,16.18c0.09,0,0.18,0,0.27,0c0.33,0.01,0.66,0.04,0.98,0.06V2.62c-0.24-0.01-0.48-0.02-0.72-0.02
							c-0.22,0-0.43,0.01-0.64,0.02v13.56C26.6,16.18,26.64,16.18,26.68,16.18C26.68,16.18,26.68,16.18,26.68,16.18z"/>
						<path class="st3" d="M44.54,31.22c0.12,0.42,0.25,0.87,0.37,1.34C44.79,32.09,44.67,31.64,44.54,31.22L44.54,31.22z"/>
						<path class="st3" d="M30.25,2.8v13.73c0.6,0.12,1.19,0.26,1.76,0.43c1.76-1.6,4.14-2.59,6.76-2.59c5.38,0,9.76,4.19,9.76,9.34
							c0,2.28-0.86,4.37-2.29,6c0.68,2.07,1.41,4.95,1.79,8.19c1.89-3.41,2.97-7.33,2.97-11.5C51.01,14.31,41.94,4.3,30.25,2.8z"/>
						<path class="st3" d="M26.38,18.27c0.18,0,0.35-0.01,0.53-0.01c-0.08,0-0.16,0-0.23,0C26.58,18.26,26.48,18.26,26.38,18.27z"/>
						<path class="st3" d="M30.49,18.73c-1.14-0.27-2.33-0.44-3.58-0.47C28.16,18.28,29.35,18.46,30.49,18.73z"/>
						<path class="st3" d="M24.24,2.79C12.52,4.26,3.41,14.28,3.41,26.4c0,4.18,1.09,8.11,2.98,11.52c0.31-3.05,0.94-6.21,1.59-8.54
							c-1.27-1.57-2.03-3.53-2.03-5.67c0-5.15,4.4-9.34,9.81-9.34c2.51,0,4.8,0.92,6.53,2.42c0.63-0.18,1.28-0.31,1.94-0.42V2.79z"
							/>
					</g>
					<g>
						<path class="st4" d="M46.24,20.4l-3.8,2.97l-1.67,1.3l-6.86,5.36c1.37,0.94,3.04,1.49,4.85,1.49c2.01,0,3.85-0.69,5.28-1.82
							c0,0,0,0,0,0c0.61-0.48,1.15-1.05,1.59-1.68c0.87-1.24,1.38-2.72,1.38-4.32C47.02,22.53,46.74,21.41,46.24,20.4z"/>
						<path class="st4" d="M36.52,21.29l1.75-1.37l4.13-3.23c-1.1-0.51-2.33-0.81-3.63-0.81c-1.91,0-3.67,0.62-5.08,1.65
							c-0.37,0.27-0.71,0.57-1.03,0.9c-0.22,0.23-0.43,0.47-0.63,0.73c-0.65,0.86-1.13,1.85-1.37,2.92
							c-0.12,0.53-0.18,1.07-0.18,1.63c0,0.56,0.07,1.1,0.18,1.63c0.03,0.15,0.08,0.29,0.12,0.44l1.88-1.47L36.52,21.29z"/>
						<path class="st4" d="M41.5,22.46l4.07-3.18c-0.23-0.31-0.48-0.61-0.75-0.88l-4.2,3.28L38.93,23l-6.26,4.9l-0.56,0.44
							c0.18,0.22,0.36,0.44,0.56,0.64c0.07,0.07,0.14,0.15,0.21,0.22l6.95-5.43L41.5,22.46z"/>
						<path class="st4" d="M15.77,15.88c-4.57,0-8.29,3.51-8.29,7.82c0,0.72,0.11,1.41,0.3,2.07l11.62-9.09
							C18.3,16.18,17.07,15.88,15.77,15.88z"/>
						<path class="st4" d="M21.83,19.85l0.73-0.57c-0.08-0.11-0.16-0.21-0.25-0.31c0,0,0,0,0,0c-0.15-0.19-0.31-0.37-0.48-0.55
							c-0.01-0.01-0.02-0.02-0.02-0.02L9.1,28.34c0.24,0.3,0.49,0.6,0.77,0.87c0,0,0.45-0.35,0.45-0.35L21.83,19.85z"/>
						<path class="st4" d="M23.23,20.4l-1.4,1.1l-10.92,8.54c1.37,0.94,3.04,1.49,4.85,1.49c2.4,0,4.55-0.98,6.06-2.54
							c0.98-1.01,1.69-2.26,2-3.65c0.12-0.53,0.18-1.07,0.18-1.63s-0.07-1.11-0.18-1.63C23.7,21.49,23.49,20.93,23.23,20.4z"/>
					</g>
					<path d="M51.74,38.97c-0.02,0-0.66,0.16-1.53,0.36c2.16-3.82,3.4-8.23,3.4-12.93C53.61,11.84,41.76,0,27.21,0
						S0.81,11.84,0.81,26.4c0,4.54,1.15,8.81,3.18,12.54c-0.8-0.09-1.42-0.15-1.49-0.16L0,38.51l0.2,2.5
						c0.01,0.11,0.21,2.59,0.68,4.32c0.65,2.38,1.67,4.29,3.03,5.68c2.2,2.24,5.43,3.53,9.33,3.71c0.35,0.02,0.69,0.02,1.01,0.02
						c0.3,0,0.6-0.01,0.9-0.02C17.11,57.9,21.57,60,26.69,60c5.1,0,9.59-2.12,11.55-5.3l0.29,0c0.54,0.04,1.08,0.06,1.61,0.06
						c0.34,0,0.7-0.01,1.07-0.03c3.94-0.19,7.18-1.48,9.38-3.72c3.03-3.09,3.64-9.16,3.7-9.84l0.25-2.87L51.74,38.97z M24.39,18.46
						c0.12-0.02,0.24-0.04,0.37-0.05c0.14-0.02,0.28-0.04,0.42-0.06c0.13-0.01,0.25-0.02,0.38-0.03c0.14-0.01,0.28-0.02,0.42-0.03
						c0.13-0.01,0.26-0.01,0.4-0.01c0.1,0,0.2-0.01,0.3-0.01c0.08,0,0.15,0,0.23,0c1.25,0.02,2.44,0.2,3.58,0.47
						c-0.96,1.44-1.53,3.15-1.53,4.98c0,1.94,0.63,3.75,1.7,5.24v4.92c-1.3-0.03-2.45-0.01-3.3,0.03c-0.73-0.05-2.01-0.13-3.54-0.13
						v-4.81c1.07-1.5,1.7-3.31,1.7-5.25c0-1.91-0.6-3.68-1.63-5.16c0.02,0,0.05-0.01,0.07-0.01C24.11,18.51,24.25,18.48,24.39,18.46
						z M21.83,18.42c0.17,0.17,0.33,0.36,0.48,0.55c0,0,0,0,0,0c0.08,0.1,0.17,0.21,0.25,0.31c0.26,0.35,0.48,0.73,0.67,1.12
						c0.26,0.53,0.47,1.09,0.6,1.67c0.12,0.53,0.18,1.07,0.18,1.63s-0.07,1.11-0.18,1.63c-0.31,1.39-1.02,2.64-2,3.65
						c-1.51,1.56-3.66,2.54-6.06,2.54c-1.81,0-3.49-0.56-4.85-1.49c-0.27-0.19-0.53-0.39-0.77-0.6c-0.09-0.08-0.18-0.15-0.27-0.23
						c-0.28-0.27-0.54-0.56-0.77-0.87c-0.19-0.24-0.37-0.5-0.53-0.76c-0.34-0.56-0.6-1.16-0.79-1.8c-0.19-0.66-0.3-1.35-0.3-2.07
						c0-4.31,3.72-7.82,8.29-7.82c1.3,0,2.53,0.3,3.63,0.81c0.41,0.19,0.81,0.42,1.18,0.67c0.45,0.31,0.86,0.65,1.23,1.04
						C21.81,18.41,21.82,18.41,21.83,18.42z M33.7,17.54c1.4-1.03,3.16-1.65,5.08-1.65c1.3,0,2.53,0.3,3.63,0.81
						c0.91,0.43,1.73,1.01,2.41,1.71c0.27,0.28,0.53,0.57,0.75,0.88c0.26,0.35,0.48,0.73,0.67,1.12c0.5,1.01,0.78,2.12,0.78,3.31
						c0,1.6-0.51,3.08-1.38,4.32c-0.44,0.63-0.98,1.2-1.59,1.68c0,0,0,0,0,0c-1.43,1.14-3.27,1.82-5.28,1.82
						c-1.81,0-3.49-0.56-4.85-1.49c-0.37-0.25-0.72-0.53-1.04-0.83c-0.07-0.07-0.14-0.15-0.21-0.22c-0.2-0.21-0.39-0.42-0.56-0.64
						c-0.59-0.76-1.05-1.62-1.32-2.56c-0.04-0.15-0.09-0.29-0.12-0.44c-0.12-0.53-0.18-1.07-0.18-1.63c0-0.56,0.07-1.1,0.18-1.63
						c0.24-1.07,0.72-2.06,1.37-2.92c0.19-0.26,0.4-0.5,0.63-0.73C32.98,18.11,33.33,17.81,33.7,17.54z M28.07,38.07
						c-0.04-0.07-0.08-0.13-0.12-0.2c-0.13-0.25-0.24-0.51-0.34-0.77v0c-0.01-0.03-0.02-0.05-0.03-0.08c0-0.01-0.01-0.03-0.01-0.04
						c-0.12-0.32-0.21-0.65-0.28-0.99c0.16-0.01,0.32-0.01,0.48-0.02c0.27-0.01,0.54-0.01,0.82-0.02c0.07,0,0.15,0,0.22,0
						c0.6-0.01,1.22,0,1.85,0.02c0.05,0,0.09,0,0.14,0c0,0,0,0,0,0c0.11,0,0.21,0.01,0.32,0.01c0.51,0.02,1.03,0.05,1.54,0.08
						c3.3,0.23,6.48,0.84,7.93,2.05c0.19,0.16,0.36,0.33,0.49,0.51c0.09,0.13,0.22,0.34,0.38,0.59v0c0.44,0.72,1.1,1.85,1.82,3.11
						c0,0,0,0,0,0c0.12,0.21,0.24,0.42,0.36,0.63c0.08,0.14,0.16,0.28,0.24,0.42c0.14,0.25,0.29,0.51,0.43,0.76
						c0.13,0.24,0.27,0.48,0.4,0.71c0.13,0.23,0.26,0.46,0.39,0.69c0.03,0.06,0.07,0.12,0.1,0.17c0.03,0.05,0.06,0.11,0.09,0.16
						c-0.07-0.01-0.15-0.02-0.23-0.03c-0.08-0.01-0.16-0.02-0.25-0.03c-0.31-0.04-0.64-0.09-0.99-0.14
						c-0.32-0.05-0.66-0.11-1.01-0.17c-0.36-0.06-0.74-0.13-1.12-0.21c-4.4-0.88-10.25-2.68-12.99-6.25
						c-0.17-0.23-0.33-0.46-0.48-0.7C28.16,38.23,28.11,38.15,28.07,38.07z M9.02,45.5c0.04-0.07,0.08-0.15,0.13-0.22
						c0.13-0.23,0.26-0.46,0.39-0.69c0.13-0.24,0.27-0.48,0.4-0.72c0,0,0,0,0-0.01c0.13-0.23,0.26-0.47,0.4-0.7
						c0.24-0.43,0.48-0.85,0.72-1.26c0,0,0,0,0-0.01c0.44-0.77,0.86-1.49,1.21-2.09c0.06-0.1,0.12-0.19,0.17-0.29
						c0.32-0.53,0.57-0.94,0.73-1.16c1.12-1.61,4.88-2.29,8.66-2.45c0.23-0.01,0.46-0.02,0.69-0.03c0.44-0.01,0.88-0.02,1.31-0.02
						c0,0,0,0,0.01,0c0.41,0,0.81,0.01,1.2,0.02c0.04,0,0.09,0,0.13,0c0.05,0.39,0.13,0.78,0.23,1.14c0,0.01,0,0.02,0.01,0.03v0
						c0.08,0.3,0.18,0.59,0.29,0.87c0.06,0.15,0.12,0.29,0.19,0.43c-0.14,0.23-0.29,0.45-0.45,0.67c-2.62,3.54-8.51,5.26-12.92,6.07
						c-0.36,0.07-0.72,0.13-1.06,0.18c-0.36,0.06-0.7,0.11-1.03,0.16c-0.35,0.05-0.68,0.09-0.98,0.13
						c-0.11,0.01-0.22,0.03-0.32,0.04c-0.06,0.01-0.12,0.01-0.17,0.02C8.98,45.58,9,45.54,9.02,45.5z M44.58,40.4
						c-0.77-1.33-1.45-2.49-1.79-2.97h0c-1.66-2.37-6.18-3.21-10.13-3.46V31c1.68,1.28,3.8,2.05,6.11,2.05
						c2.16,0,4.15-0.68,5.77-1.82v0c0.25,0.84,0.5,1.79,0.73,2.82c0.15,0.69,0.3,1.42,0.42,2.17c0.06,0.38,0.12,0.76,0.18,1.15
						c0.13,0.92,0.22,1.87,0.28,2.84c-0.1,0.02-0.21,0.04-0.3,0.05C45.37,40.35,44.94,40.39,44.58,40.4z M8.35,39.4
						c0.05-0.72,0.12-1.45,0.21-2.19c0.04-0.37,0.09-0.73,0.15-1.1c0.13-0.91,0.29-1.81,0.46-2.67c0.17-0.86,0.35-1.67,0.54-2.42
						c1.67,1.26,3.77,2.01,6.06,2.01c2.29,0,4.4-0.76,6.06-2.03v2.79c-3.96,0.16-8.65,0.89-10.37,3.35c-0.3,0.42-0.86,1.37-1.51,2.5
						c-0.52-0.07-1.06-0.14-1.6-0.22C8.35,39.43,8.35,39.42,8.35,39.4z M46.25,29.7c1.43-1.62,2.29-3.71,2.29-6
						c0-5.15-4.38-9.34-9.76-9.34c-2.62,0-5,0.99-6.76,2.59c-0.57-0.17-1.16-0.31-1.76-0.43c-0.75-0.15-1.53-0.24-2.32-0.29
						c-0.33-0.02-0.65-0.06-0.98-0.06c-0.09,0-0.18,0-0.27,0c0,0,0,0,0,0c-0.04,0-0.08,0-0.12,0c-0.79,0.01-1.57,0.07-2.32,0.19
						c-0.66,0.1-1.31,0.24-1.94,0.42c-1.73-1.5-4.02-2.42-6.53-2.42c-5.41,0-9.81,4.19-9.81,9.34c0,2.13,0.76,4.09,2.03,5.67
						c-0.66,2.33-1.29,5.49-1.59,8.54C4.5,34.5,3.41,30.58,3.41,26.4c0-12.12,9.1-22.14,20.83-23.61c0.76-0.1,1.54-0.15,2.32-0.18
						c0.21-0.01,0.43-0.02,0.64-0.02c0.24,0,0.48,0.01,0.72,0.02c0.78,0.02,1.56,0.09,2.32,0.18c11.69,1.5,20.75,11.51,20.75,23.6
						c0,4.17-1.08,8.09-2.97,11.5C47.66,34.66,46.92,31.78,46.25,29.7z M51.64,44.28c-0.11,0.45-0.25,0.93-0.4,1.4
						c-0.16,0.48-0.34,0.95-0.54,1.42c-0.41,0.93-0.93,1.79-1.58,2.45c-0.39,0.4-0.84,0.76-1.31,1.08c-0.46,0.32-0.96,0.59-1.5,0.84
						c-0.36,0.16-0.73,0.31-1.12,0.44c-0.52,0.18-1.06,0.33-1.64,0.45c-0.77,0.15-1.58,0.25-2.43,0.29
						c-0.3,0.01-0.59,0.02-0.87,0.02c-0.03,0-0.07,0-0.1,0c-0.05,0-0.09,0-0.14,0c-0.18,0-0.35,0-0.52-0.01
						c-0.07,0-0.14,0-0.21-0.01c-0.23-0.01-0.45-0.02-0.66-0.04l-1.66,0c-0.4,1.14-1.24,2.17-2.39,3.01
						c-1.54,1.12-3.65,1.91-6.03,2.19c-0.6,0.07-1.21,0.1-1.83,0.1c-4.13,0-7.7-1.54-9.42-3.78c-0.4-0.52-0.7-1.07-0.88-1.65
						l-0.52,0.12c0,0-0.01,0-0.01,0c-0.21,0.02-0.43,0.03-0.67,0.04c-0.07,0-0.14,0.01-0.21,0.01c-0.18,0.01-0.37,0.01-0.57,0.01
						c-0.05,0-0.1,0-0.15,0c-0.03,0-0.06,0-0.08,0c-0.27,0-0.54-0.01-0.83-0.02c-2.11-0.1-3.97-0.56-5.52-1.34
						c-0.62-0.31-1.19-0.68-1.7-1.09c-0.26-0.21-0.5-0.43-0.73-0.66c-0.15-0.15-0.28-0.34-0.43-0.51c-0.72-0.87-1.31-1.97-1.76-3.28
						c-0.11-0.32-0.22-0.63-0.32-0.98c-0.03-0.1-0.05-0.2-0.08-0.3c-0.37-1.55-0.54-3.64-0.54-3.64s0.09,0.01,0.23,0.02
						c0.17,0.02,0.44,0.05,0.76,0.08c0.58,0.06,1.34,0.15,2.08,0.23c0.14,0.02,0.28,0.03,0.42,0.05c0.15,0.02,0.29,0.03,0.43,0.05
						c0.12,0.01,0.24,0.03,0.36,0.04c0.08,0.01,0.16,0.02,0.24,0.03c0.27,0.03,0.5,0.06,0.69,0.08c0.12,0.02,0.23,0.03,0.31,0.04
						c0.02,0,0.05,0.01,0.07,0.01c0.14,0.02,0.27,0.04,0.41,0.06c0.19,0.02,0.37,0.05,0.55,0.07c-0.12,0.21-0.24,0.43-0.36,0.64
						c-0.04,0.08-0.09,0.15-0.13,0.23c-0.09,0.17-0.19,0.34-0.28,0.5c-0.14,0.24-0.27,0.48-0.4,0.71c-0.05,0.09-0.1,0.17-0.15,0.26
						c-0.5,0.89-0.91,1.62-1.13,2.04c-0.1,0.19-0.18,0.32-0.19,0.35l-0.9,1.64l1.87-0.09c0.23-0.01,1.86-0.11,4.13-0.45
						c0.1-0.01,0.2-0.03,0.3-0.05c0.34-0.05,0.69-0.11,1.06-0.18c0.35-0.06,0.71-0.13,1.08-0.21c0.38-0.08,0.77-0.16,1.17-0.25
						c4.4-1.01,9.54-2.91,12.2-6.43c2.75,3.53,7.85,5.5,12.23,6.57c0.42,0.1,0.83,0.2,1.23,0.28c0.37,0.08,0.73,0.15,1.08,0.22
						c0.36,0.07,0.72,0.13,1.06,0.19c0.08,0.01,0.15,0.02,0.23,0.04c2.31,0.38,3.97,0.5,4.21,0.52l1.89,0.12l-0.92-1.66
						c-0.02-0.04-0.11-0.2-0.25-0.45c-0.24-0.43-0.64-1.15-1.1-1.98c-0.04-0.07-0.07-0.13-0.11-0.2c-0.13-0.23-0.26-0.47-0.4-0.71
						c-0.13-0.24-0.27-0.48-0.41-0.73c-0.02-0.04-0.05-0.08-0.07-0.13c0.07-0.01,0.14-0.02,0.21-0.03c0.1-0.01,0.19-0.03,0.29-0.05
						c0.25-0.04,0.56-0.1,0.89-0.17c0.35-0.07,0.74-0.15,1.14-0.24c0.01,0,0.03-0.01,0.04-0.01c0.11-0.02,0.21-0.05,0.32-0.07
						c0.59-0.13,1.19-0.27,1.73-0.39c0.13-0.03,0.26-0.06,0.39-0.09c0.87-0.2,1.49-0.35,1.49-0.35S52.09,42.47,51.64,44.28z"/>
				</g>
			</g>
		</g>
	</g>
</g>
</svg>
